<svg width="253" height="78" viewBox="0 0 253 78" fill="none" xmlns="http://www.w3.org/2000/svg">
<path d="M9.68504 70.582H226.194L243.169 7.14292H26.6598L9.68504 70.582ZM232.128 77.5909H0L20.7264 0.134094H252.854L232.128 77.5909Z" fill="#3D58B0"/>
<path d="M37.7244 37.4287H44.9077C47.8311 37.4287 49.7373 36.1639 50.502 33.1284C51.2353 30.2193 49.9667 28.9545 47.0433 28.9545H39.86L37.7244 37.4287ZM34.5997 23.8109H50.6781C56.0238 23.8109 58.4614 27.5627 57.3137 32.1168C56.4214 35.658 54.3319 38.3146 50.6932 39.6631L50.6719 39.7478C53.6745 40.591 53.7971 43.7528 53.2404 46.7883C52.8879 48.6864 51.9539 52.2282 52.6984 53.9141H46.1414C45.826 52.0166 46.6424 49.1074 46.914 46.7047C47.2514 43.5429 46.3905 42.1506 43.0915 42.1506H36.5351L33.5706 53.9141H27.0137L34.5997 23.8109Z" fill="#3D58B0"/>
<path d="M85.3421 42.5309C83.2914 50.6684 77.5317 54.6313 69.5549 54.6313C61.5365 54.6313 57.8473 50.7105 59.9081 42.5309L64.6253 23.8109H71.1817L66.4651 42.5309C65.6363 45.819 65.6531 49.0661 70.9579 49.0661C75.6345 49.0661 77.6594 47.0007 78.7851 42.5309L83.5022 23.8109H90.0586L85.3421 42.5309Z" fill="#3D58B0"/>
<path d="M101.978 53.9141H94.586L92.4824 23.8109H99.248L100.555 44.9761H100.639L112.695 23.8109H119.462L101.978 53.9141Z" fill="#3D58B0"/>
<path d="M122.007 23.8109H144.309L142.906 29.3766H127.162L125.536 35.8271H139.986L138.691 40.9706H124.24L122.381 48.3484H138.46L137.058 53.9141H114.422L122.007 23.8109Z" fill="#3D58B0"/>
<path d="M149.069 23.8109H155.585L162.941 44.0066H163.024L168.114 23.8109H174.252L166.667 53.9141H160.11L152.785 33.7611H152.702L147.624 53.9141H141.484L149.069 23.8109Z" fill="#3D58B0"/>
<path d="M185.21 29.3766H176.272L177.675 23.8109H202.106L200.704 29.3766H191.767L185.584 53.9141H179.027L185.21 29.3766Z" fill="#3D58B0"/>
<path d="M204.932 43.922C203.922 47.9276 206.62 49.4872 210.127 49.4872C212.424 49.4872 216.102 48.813 216.878 45.7354C217.696 42.4888 213.365 41.9409 209.278 40.7597C205.148 39.5796 201.115 37.8506 202.539 32.2007C204.091 26.0456 210.597 23.0943 215.985 23.0943C222.207 23.0943 227.238 25.8345 225.485 32.7913H219.137C219.843 29.1652 217.528 28.2373 214.396 28.2373C212.308 28.2373 209.663 29.1231 209.025 31.6527C208.441 33.9719 209.787 34.2666 216.773 36.2063C218.807 36.7542 225.138 38.1459 223.418 44.9764C222.026 50.4994 216.682 54.6313 208.58 54.6313C201.982 54.6313 196.63 51.3426 198.583 43.922H204.932Z" fill="#3D58B0"/>
</svg>
