<svg width="162" height="174" viewBox="0 0 162 174" fill="none" xmlns="http://www.w3.org/2000/svg">
<path d="M121.165 21.5259V12.6265C121.165 12.6265 106.585 0 81.0093 0C55.4347 0 41.4494 11.0581 41.4494 11.0581V21.1786C16.7161 35.1464 0 61.8051 0 92.4026C0 137.463 36.2623 174 81.0015 174C125.737 174 162 137.463 162 92.4026C162 62.0589 145.559 35.5858 121.165 21.5259Z" fill="#E0C68F"/>
<path d="M118.789 25.961V30.1656C139.555 43.0123 153.443 66.1007 153.443 92.3982C153.443 132.639 120.946 165.375 81.0018 165.375C41.0563 165.375 8.55727 132.638 8.55727 92.3982C8.55727 65.8405 22.7198 42.5581 43.8338 29.7906V25.6043C20.654 38.7444 4.9502 63.753 4.9502 92.3982C4.9502 134.645 39.0686 169.01 81.0018 169.01C122.933 169.01 157.046 134.645 157.046 92.3982C157.046 64.0088 141.623 39.1956 118.789 25.961Z" fill="#B10836"/>
<path d="M43.834 41.6398V38.5173C26.921 50.3908 15.8262 70.1108 15.8262 92.3982C15.8262 97.1376 16.3311 101.864 17.3272 106.453C17.4735 107.142 18.1459 107.577 18.8267 107.427C19.5094 107.278 19.9411 106.598 19.7942 105.911C18.837 101.504 18.3532 96.956 18.3532 92.3977C18.3537 71.6104 28.3876 53.1432 43.834 41.6398Z" fill="#B10836"/>
<path d="M118.789 38.9586V42.1044C133.878 53.6384 143.648 71.8885 143.648 92.3987C143.648 96.6824 143.224 100.964 142.377 105.12C142.236 105.807 142.678 106.483 143.362 106.623C144.045 106.764 144.713 106.321 144.851 105.634C145.729 101.307 146.174 96.8531 146.174 92.3987C146.174 70.3814 135.348 50.8766 118.789 38.9586Z" fill="#B10836"/>
<path d="M118.789 51.4392V56.5546C127.553 65.9275 132.943 78.5387 132.943 92.3982C132.943 121.256 109.64 144.725 81.0018 144.725C52.3588 144.725 29.0582 121.256 29.0582 92.3982C29.0582 78.2146 34.6992 65.3388 43.8338 55.904V50.8588C32.5553 61.109 25.4531 75.9323 25.4531 92.3982C25.4531 123.256 50.3731 148.355 81.0022 148.355C111.632 148.355 136.546 123.256 136.546 92.3982C136.546 76.2356 129.703 61.6626 118.789 51.4392Z" fill="#B10836"/>
<path d="M22.3694 115.042L27.4632 116.954L28.4833 119.398L23.2643 117.258L19.5786 123.413L18.5649 120.978L21.3512 116.512L20.0766 116.009L17.0324 117.298L16.2451 115.412L25.2402 111.612L26.0236 113.494L22.3694 115.042Z" fill="#B10836"/>
<path d="M22.1162 127.755L21.0371 126.023L29.2915 120.792L31.6643 124.592C32.6668 126.199 32.2557 127.801 30.6304 128.832C29.8942 129.3 27.735 130.09 26.3392 127.858L25.0956 125.864L22.1162 127.755ZM26.5165 124.964L27.5248 126.577C28.2419 127.727 29.1088 127.385 29.6191 127.06C30.4276 126.547 30.488 125.883 29.8151 124.81L28.9492 123.424L26.5165 124.964Z" fill="#B10836"/>
<path d="M37.4346 132.139L32.3256 141.193L30.8801 139.52L31.9847 137.707L29.6281 134.984L27.661 135.791L26.2607 134.17L35.8884 130.359L37.4346 132.139ZM31.2494 134.278L32.9606 136.26L34.998 132.699L34.9769 132.679L31.2494 134.278Z" fill="#B10836"/>
<path d="M43.4739 142.138C43.7268 141.573 44.2042 140.478 42.9105 139.401C42.1507 138.774 40.5677 138.371 38.8172 140.513C37.7062 141.87 37.244 143.607 38.5701 144.708C39.44 145.433 40.4891 145.406 41.4351 144.632L42.9974 145.93C41.3358 147.324 39.3319 147.586 37.4444 146.021C35.4429 144.36 35.131 141.802 37.2676 139.192C39.44 136.54 42.0519 136.449 43.9925 138.057C46.2396 139.924 45.8727 142.249 45.0407 143.436L43.4739 142.138Z" fill="#B10836"/>
<path d="M48.4674 146.169L51.768 148.067L53.6029 144.842L55.3628 145.857L50.5204 154.382L48.7601 153.368L50.935 149.537L47.6324 147.637L45.4595 151.464L43.7002 150.45L48.5411 141.924L50.3009 142.937L48.4674 146.169Z" fill="#B10836"/>
<path d="M62.1936 148.556L62.0856 158.967L60.0168 158.214L60.1091 156.09L56.7368 154.857L55.4078 156.529L53.3984 155.792L59.9844 147.752L62.1936 148.556ZM57.8159 153.451L60.2668 154.346L60.3307 150.237L60.3076 150.226L57.8159 153.451Z" fill="#B10836"/>
<path d="M72.7742 161.117L70.7761 160.756L71.45 156.973L69.9721 156.703L67.0743 160.086L64.7334 159.66L67.782 156.114C66.7634 155.56 65.8331 154.496 66.1057 152.964C66.3812 151.435 67.7953 150.234 69.6445 150.57L74.5006 151.448L72.7742 161.117ZM72.2044 152.749L69.7344 152.302C68.7152 152.119 68.2074 152.742 68.117 153.26C67.9706 154.06 68.3911 154.701 69.4353 154.89L71.7496 155.31L72.2044 152.749Z" fill="#B10836"/>
<path d="M89.4751 151.26L90.176 161.058L88.151 161.208L87.5709 153.095L83.7787 153.369L84.3607 161.481L82.3371 161.629L81.6357 151.831L89.4751 151.26Z" fill="#B10836"/>
<path d="M99.2062 149.036L101.542 158.572L99.5721 159.062L97.6394 151.164L94.9665 151.832L95.9616 155.905C96.5667 158.376 96.3575 160.124 94.4921 160.589C94.0485 160.697 93.6227 160.761 93.2568 160.743L92.8865 159.216C93.0127 159.228 93.2312 159.216 93.4901 159.151C94.3801 158.93 94.4483 158.248 93.941 156.182L92.5977 150.675L99.2062 149.036Z" fill="#B10836"/>
<path d="M105.091 146.369C106.27 145.845 109.59 144.98 111.445 149.183C113.301 153.388 110.433 155.29 109.258 155.819C108.081 156.347 104.757 157.21 102.904 153.008C101.049 148.804 103.913 146.898 105.091 146.369ZM108.56 154.237C109.568 153.785 110.699 152.524 109.59 150.013C108.486 147.5 106.797 147.502 105.789 147.954C104.783 148.406 103.651 149.666 104.757 152.177C105.863 154.687 107.551 154.687 108.56 154.237Z" fill="#B10836"/>
<path d="M117.211 149.44L119.287 147.945L114.595 141.326L116.246 140.138L120.938 146.754L123.016 145.26L118.32 138.645L119.971 137.455L124.663 144.071L125.453 143.505L127.633 146.577L126.092 147.684L124.886 145.99L116.541 152.003L110.868 144.01L112.519 142.823L117.211 149.44Z" fill="#B10836"/>
<path d="M125.11 132.062L134.559 136.276L133.054 137.895L131.15 136.966L128.694 139.599L129.695 141.492L128.228 143.06L123.497 133.787L125.11 132.062ZM127.84 138.048L129.624 136.131L125.903 134.45L125.884 134.468L127.84 138.048Z" fill="#B10836"/>
<path d="M132.739 121.614L139.487 126.085L140.01 125.28L143.13 127.346L142.089 128.942L140.372 127.806L137.223 132.632L138.939 133.771L137.901 135.361L134.78 133.296L135.261 132.563C134.599 131.04 133.617 130.148 131.544 128.77L129.118 127.168L132.739 121.614ZM138.375 127.789L133.027 124.253L131.57 126.491L132.705 127.241C134.802 128.633 135.668 129.399 136.364 130.865L138.375 127.789Z" fill="#B10836"/>
<path d="M138.132 118.992L139.146 116.65C139.893 114.914 141.522 114.03 143.294 114.804C145.057 115.578 145.467 117.31 144.691 119.107L142.878 123.3L133.937 119.383L134.745 117.512L138.132 118.992ZM142.15 120.75L143.067 118.631C143.455 117.723 143.128 116.961 142.39 116.638C141.6 116.291 140.954 116.7 140.588 117.547L139.672 119.669L142.15 120.75Z" fill="#B10836"/>
<path d="M122.366 108.348L117.013 113.62H115.028V109.351L110.553 92.506V92.3497H111.53V91.1657H110.553V84.4383H111.53V83.2499H110.504L108.336 69.7274V65.218H113.267L111.615 63.5729L113.267 61.8264H108.336V60.7988H107.754V61.8264H107.744V65.218H107.754V69.7274L105.582 83.2499H104.541V84.4383H105.534V91.1657H104.541V92.3497H105.534V92.506L102.066 105.535L96.3766 94.4055L97.5622 92.1889H95.5107V88.0784H94.3412V88.9462H67.4787V88.0784H66.3019V92.1889H64.2582L65.4399 94.4055L59.7435 105.535L56.2833 92.506V92.3497H57.2666V91.1657H56.2833V84.4383H57.2666V83.2499H56.2317L54.0642 69.7274V65.218H58.9969L57.351 63.5729L58.9969 61.8264H54.0642V60.7988H53.4768V69.7274L51.3063 83.2499H50.2798V84.4383H51.2572V91.1657H50.2798V92.3497H51.2572V92.506L46.7838 109.351V113.62H44.8024L39.4429 108.348L35.7734 111.877C43.3854 129.396 60.7381 141.651 80.9419 141.651C101.131 141.651 118.47 129.419 126.084 111.916L122.366 108.348ZM90.3874 89.6626H94.3417V92.1889H90.3874V89.6626ZM85.8142 89.6626H89.7268V92.1889H85.8142V89.6626ZM81.2361 89.6626H85.1492V92.1889H81.2361V89.6626ZM70.2896 131.603H68.3785V124.953H66.1403V123.663C66.7283 123.634 67.1384 123.595 67.3761 123.543C67.7479 123.459 68.0544 123.293 68.2877 123.042C68.4483 122.871 68.5701 122.643 68.6536 122.358C68.7012 122.187 68.7263 122.061 68.7263 121.976H70.2892V131.603H70.2896ZM71.4213 92.1894H67.4792V89.6631H71.4213V92.1894ZM72.0883 89.6626H75.9964V92.1889H72.0883V89.6626ZM78.519 130.991C77.9223 131.558 77.0893 131.845 76.0195 131.845C74.9503 131.845 74.1413 131.559 73.5927 130.991C73.0421 130.422 72.7666 129.733 72.7666 128.922C72.7666 128.381 72.8864 127.891 73.1305 127.454C73.3702 127.015 73.7253 126.686 74.1924 126.464C73.7341 126.155 73.435 125.821 73.2985 125.464C73.1605 125.102 73.0917 124.766 73.0917 124.454C73.0917 123.757 73.3535 123.163 73.8776 122.67C74.4002 122.18 75.1364 121.934 76.0902 121.934C77.0431 121.934 77.7793 122.18 78.3034 122.67C78.826 123.163 79.0868 123.758 79.0868 124.454C79.0868 124.768 79.0195 125.102 78.8805 125.464C78.7449 125.823 78.4478 126.135 77.9905 126.399C78.463 126.666 78.8172 127.017 79.0554 127.455C79.2921 127.892 79.4134 128.383 79.4134 128.923C79.4129 129.733 79.1148 130.422 78.519 130.991ZM80.5706 92.1894H76.6614V89.6631H80.5706V92.1894ZM87.076 129.66C86.5121 131.146 85.4768 131.886 83.9728 131.886C83.2528 131.886 82.606 131.676 82.0333 131.251C81.4611 130.825 81.133 130.208 81.049 129.394H82.9183C82.9601 129.68 83.0789 129.911 83.2754 130.09C83.4719 130.267 83.7307 130.357 84.0554 130.357C84.6811 130.357 85.1202 130.006 85.3722 129.306C85.5102 128.92 85.5966 128.357 85.632 127.617C85.4581 127.834 85.2779 128 85.0834 128.115C84.7322 128.325 84.299 128.43 83.7842 128.43C83.0239 128.43 82.3486 128.166 81.7597 127.64C81.1698 127.108 80.8751 126.349 80.8751 125.351C80.8751 124.321 81.1708 123.486 81.7626 122.847C82.353 122.208 83.1227 121.888 84.0652 121.888C85.5205 121.888 86.5171 122.538 87.0603 123.836C87.3682 124.571 87.521 125.539 87.521 126.741C87.5205 127.908 87.3717 128.879 87.076 129.66ZM94.6138 130.918C94.0544 131.535 93.2287 131.845 92.129 131.845C90.7783 131.845 89.8383 131.399 89.3118 130.509C89.0362 130.034 88.883 129.416 88.8515 128.65H90.6963C90.6963 129.036 90.7607 129.356 90.8839 129.611C91.1118 130.079 91.5308 130.312 92.1354 130.312C92.5087 130.312 92.8299 130.183 93.1055 129.929C93.382 129.677 93.522 129.308 93.522 128.831C93.522 128.196 93.2675 127.772 92.7587 127.561C92.4699 127.438 92.0161 127.381 91.3933 127.381V126.024C91.9851 126.016 92.3972 125.955 92.632 125.844C93.0367 125.66 93.2405 125.281 93.2405 124.712C93.2405 124.342 93.1364 124.042 92.9267 123.812C92.7199 123.58 92.4282 123.464 92.0504 123.464C91.6187 123.464 91.3009 123.608 91.0971 123.894C90.8962 124.18 90.7965 124.562 90.8083 125.04H89.0259C89.0406 124.562 89.1256 124.105 89.2685 123.676C89.4218 123.299 89.6629 122.951 89.9915 122.633C90.2386 122.406 90.5274 122.231 90.8648 122.113C91.2022 121.995 91.6158 121.935 92.1084 121.935C93.0175 121.935 93.7523 122.172 94.3098 122.648C94.8727 123.123 95.1487 123.762 95.1487 124.564C95.1487 125.131 94.9866 125.608 94.6595 125.999C94.4557 126.24 94.24 126.407 94.021 126.495C94.188 126.495 94.4301 126.644 94.7474 126.94C95.2189 127.387 95.4527 127.997 95.4527 128.77C95.4527 129.585 95.1718 130.3 94.6138 130.918Z" fill="#B10836"/>
<path d="M84.1604 123.463C83.8377 123.463 83.5607 123.555 83.3289 123.738C82.9674 124.022 82.7871 124.502 82.7871 125.183C82.7871 125.756 82.9015 126.183 83.1339 126.471C83.3647 126.756 83.7213 126.899 84.2036 126.899C84.462 126.899 84.7076 126.825 84.934 126.673C85.3696 126.397 85.5882 125.922 85.5882 125.241C85.5882 124.696 85.462 124.262 85.2075 123.944C84.9517 123.625 84.6034 123.463 84.1604 123.463Z" fill="#B10836"/>
<path d="M76.0926 125.848C76.4786 125.848 76.7783 125.739 76.9885 125.519C77.2006 125.299 77.3058 125.018 77.3058 124.669C77.3058 124.292 77.2002 123.996 76.9885 123.784C76.7778 123.572 76.4786 123.463 76.0926 123.463C75.7105 123.463 75.4114 123.573 75.1957 123.784C74.9816 123.996 74.874 124.292 74.874 124.669C74.874 125.018 74.9821 125.299 75.1957 125.519C75.4118 125.739 75.7105 125.848 76.0926 125.848Z" fill="#B10836"/>
<path d="M76.0902 127.293C75.6648 127.293 75.3264 127.42 75.0759 127.678C74.8259 127.935 74.7002 128.311 74.7002 128.805C74.7002 129.283 74.822 129.652 75.0681 129.917C75.3146 130.18 75.655 130.311 76.0902 130.311C76.5253 130.311 76.8647 130.18 77.1123 129.917C77.3564 129.652 77.4797 129.283 77.4797 128.805C77.4797 128.311 77.3549 127.934 77.1039 127.678C76.8534 127.42 76.516 127.293 76.0902 127.293Z" fill="#B10836"/>
<path d="M66.6187 15.3487L67.1064 15.2537V7.9267L66.4006 8.05336C60.2307 9.14878 54.1713 10.9384 48.3923 13.3682L48.0225 13.523L48.0244 52.6187L48.3938 52.7736C50.356 53.5994 52.3746 54.3593 54.3957 55.0347L55.1855 55.2994C55.1855 55.2994 55.1855 19.3158 55.1855 18.4673C58.9021 17.1457 62.7454 16.0914 66.6187 15.3487Z" fill="#B10836"/>
<path d="M72.4026 7.20582L71.8638 7.26074C71.8638 7.26074 71.8638 34.7397 71.8638 36.0113C69.1948 35.707 67.1059 33.4434 67.1059 30.6742V20.1332L66.383 20.2841C64.3682 20.7036 62.3466 21.2132 60.3736 21.8035L59.9434 21.9331V30.6747C59.9434 37.4253 65.239 42.94 71.8638 43.2577C71.8638 43.9523 71.8638 45.2655 71.8638 45.2655C71.8638 48.242 69.4606 50.6659 66.5053 50.6659C66.1256 50.6659 65.7464 50.6248 65.3775 50.5451C65.3456 50.5392 62.489 49.9331 60.7101 49.4195L59.9434 49.1999V56.6674L60.3805 56.7926C61.1492 57.0128 63.3004 57.4774 63.9419 57.6149C64.7646 57.7886 65.6271 57.8786 66.5053 57.8786C73.409 57.8786 79.0264 52.2204 79.0264 45.2655V6.76251L78.4041 6.78576C76.3987 6.85552 74.38 6.99604 72.4026 7.20582Z" fill="#B10836"/>
<path d="M114.486 13.5295C112.593 12.4256 110.429 11.8413 108.228 11.8413C105.072 11.8413 102.112 13.0213 99.7984 15.1553C96.3618 9.90281 90.6599 6.78329 84.3858 6.78329H83.7861V59.3773L84.407 59.356C86.4045 59.2872 88.4207 59.1462 90.4065 58.9394L90.9487 58.8815C90.9487 58.8815 90.9467 18.2827 90.9467 16.132C93.8986 18.26 95.7075 21.709 95.7075 25.4015V58.2161L96.4128 58.0894C98.4182 57.7342 100.438 57.2988 102.417 56.7966L102.866 56.6813V24.456C102.866 21.6867 104.957 19.4237 107.628 19.1169C107.628 20.4023 107.628 55.3004 107.628 55.3004L108.416 55.0357C110.438 54.3598 112.459 53.5994 114.418 52.7746L114.787 52.6197V13.7051L114.486 13.5295Z" fill="#B10836"/>
</svg>
