<svg width="58" height="58" viewBox="0 0 58 58" fill="none" xmlns="http://www.w3.org/2000/svg">
<g clip-path="url(#clip0)">
<path d="M13.7951 17.8034V31.5155H3.02344V21.6459C3.02344 19.5241 4.74418 17.8034 6.86594 17.8034H8.83023H13.7951Z" fill="#BED8FB"/>
<path d="M54.976 22.4603V52.6327C54.976 55.1283 52.9539 57.1504 50.4595 57.1504H13.3486C11.2166 57.1504 9.43016 55.6732 8.95551 53.6863L8.93738 51.1034L8.83203 35.7221V5.36727C8.83203 2.87168 10.8541 0.849609 13.3486 0.849609H33.3654C35.1643 0.849609 40.9903 5.81699 46.1401 11.0483C50.8391 15.8231 54.976 20.8177 54.976 22.4603Z" fill="#DDEAFB"/>
<path d="M54.9753 22.4603V33.5131C54.9753 33.5007 54.9742 33.4882 54.9742 33.4746C54.6343 19.9126 43.5871 19.285 39.9746 15.6725L46.1394 11.0483C50.8384 15.8231 54.9753 20.8177 54.9753 22.4603Z" fill="#CBE2FF"/>
<path d="M33.3644 0.849609H22.3115C22.324 0.849609 22.3364 0.850742 22.35 0.850742C35.9121 1.19059 36.5397 12.2378 40.1522 15.8503L44.7763 9.68555C40.0015 4.98664 35.007 0.849609 33.3644 0.849609Z" fill="#CBE2FF"/>
<path d="M54.9753 22.461V24.3718C54.9753 20.3487 51.713 17.0864 47.69 17.0864H43.2558C40.7614 17.0864 38.7385 15.0635 38.7385 12.5691V8.13495C38.7385 4.11188 35.4762 0.849609 31.4531 0.849609H33.364C36.8046 0.849609 40.1055 2.21669 42.5385 4.64963L51.1753 13.2864C53.6081 15.7192 54.9753 19.0201 54.9753 22.461Z" fill="#BED8FB"/>
<path d="M39.4137 35.0379V45.1698C39.4137 48.447 36.7573 51.1034 33.48 51.1034H8.93641L8.83105 35.7221V29.1042H33.4799C36.7573 29.1042 39.4137 31.7607 39.4137 35.0379Z" fill="#CBE2FF"/>
<path d="M43.2562 31.422V41.5538C43.2562 44.8311 40.5998 47.4875 37.3226 47.4875H6.86691C6.7525 47.4875 6.64035 47.483 6.5282 47.4716C4.56504 47.3017 3.02441 45.6535 3.02441 43.645V21.6458C3.02441 22.7061 3.45488 23.6667 4.15043 24.3623C4.77008 24.983 5.60156 25.3931 6.5282 25.4724C6.64035 25.4838 6.7525 25.4883 6.86691 25.4883H37.3226C40.5998 25.4883 43.2562 28.1447 43.2562 31.422Z" fill="#DD636E"/>
<path d="M6.5282 25.4724V47.4716C4.56504 47.3017 3.02441 45.6535 3.02441 43.645V21.6458C3.02441 22.7061 3.45488 23.6667 4.15043 24.3623C4.77019 24.983 5.60168 25.3931 6.5282 25.4724Z" fill="#DA4A54"/>
<path d="M55.8247 22.461C55.8247 18.7682 54.3869 15.2966 51.776 12.6857L43.1392 4.0489C40.5281 1.43788 37.0566 0 33.364 0H33.3639H17.7839C17.3145 0 16.9343 0.380398 16.9343 0.849609C16.9343 1.31882 17.3145 1.69922 17.7839 1.69922H31.4531C35.0017 1.69922 37.8888 4.5863 37.8888 8.13495V12.5691C37.8888 15.5285 40.2964 17.936 43.2557 17.936H47.6899C51.2313 17.936 54.1133 20.8114 54.1252 24.35V52.6327C54.1252 54.6553 52.4802 56.3008 50.4583 56.3008H13.3473C11.6737 56.3008 10.2293 55.186 9.80309 53.5782L9.76673 48.3374H37.3221C41.0624 48.3374 44.1053 45.2945 44.1053 41.5542V39.7174C44.1053 39.2482 43.725 38.8678 43.2557 38.8678C42.7864 38.8678 42.4061 39.2482 42.4061 39.7174V41.5542C42.4061 44.3575 40.1254 46.6382 37.3221 46.6382H6.86582C5.21566 46.6382 3.87305 45.2956 3.87305 43.6455V25.2564C4.68584 25.9313 5.72916 26.3378 6.86582 26.3378H37.3219C40.1253 26.3378 42.406 28.6185 42.406 31.4218V36.3189C42.406 36.7881 42.7863 37.1685 43.2556 37.1685C43.7249 37.1685 44.1052 36.7881 44.1052 36.3189V31.4218C44.1052 27.6815 41.0623 24.6386 37.3219 24.6386H9.68018V5.36727C9.68018 3.34474 11.3251 1.69922 13.3471 1.69922H14.386C14.8553 1.69922 15.2356 1.31882 15.2356 0.849609C15.2356 0.380398 14.8552 0 14.386 0H13.3472C10.3883 0 7.98108 2.40779 7.98108 5.36727V16.9538H6.86582C4.27859 16.9538 2.17383 19.0587 2.17383 21.6458V43.6455C2.17383 46.2327 4.27859 48.3374 6.86582 48.3374H8.06729L8.10444 53.6921C8.1049 53.7567 8.11271 53.8209 8.12766 53.8837C8.70676 56.3074 10.8531 58 13.3472 58H50.4581C53.4171 58 55.8243 55.5922 55.8243 52.6327L55.8247 22.461ZM6.86582 18.653H7.98108V24.6386H6.86582C5.21566 24.6386 3.87305 23.2959 3.87305 21.6458C3.87305 19.9956 5.21554 18.653 6.86582 18.653ZM47.6898 16.2368H43.2556C41.2332 16.2368 39.5879 14.5915 39.5879 12.5691V8.13495C39.5879 5.83897 38.632 3.76241 37.0972 2.28182C38.903 2.86364 40.5574 3.87014 41.9376 5.25036L50.5744 13.8871C51.9547 15.2674 52.9611 16.9217 53.5429 18.7275C52.0623 17.1927 49.9857 16.2368 47.6898 16.2368Z" fill="black"/>
<path d="M36.392 31.9196C36.8613 31.9196 37.2416 31.5392 37.2416 31.07C37.2416 30.6008 36.8613 30.2204 36.392 30.2204H32.0117C31.5424 30.2204 31.1621 30.6008 31.1621 31.07V41.8776C31.1621 42.3468 31.5424 42.7272 32.0117 42.7272C32.481 42.7272 32.8613 42.3468 32.8613 41.8776V37.221H36.0441C36.5134 37.221 36.8937 36.8406 36.8937 36.3714C36.8937 35.9022 36.5134 35.5218 36.0441 35.5218H32.8613V31.9196H36.392Z" fill="black"/>
<path d="M20.8711 30.2204C20.6456 30.2204 20.4292 30.3101 20.2697 30.4698C20.1104 30.6296 20.021 30.846 20.0215 31.0717V31.081V31.0813V41.7021C20.0215 41.7683 20.0298 41.8324 20.0441 41.8941C20.0484 42.1146 20.1378 42.325 20.2944 42.4806C20.4535 42.6386 20.6688 42.7272 20.893 42.7272H20.8961C20.9885 42.7269 23.1678 42.7185 24.0364 42.7033C25.5442 42.677 26.8866 41.9939 27.8167 40.7801C28.6738 39.6614 29.146 38.1321 29.146 36.4738C29.146 32.7335 27.0506 30.2205 23.932 30.2205H20.8711V30.2204ZM27.4467 36.4738C27.4467 39.1059 26.0322 40.969 24.0067 41.0043C23.49 41.0134 22.4719 41.02 21.7396 41.024C21.7354 39.7844 21.7284 37.5151 21.7284 36.462C21.7284 35.5805 21.7244 33.204 21.7221 31.9197H23.9318C25.6312 31.9196 27.4467 33.1161 27.4467 36.4738Z" fill="black"/>
<path d="M11.6202 30.1407C11.3945 30.1407 11.178 30.2306 11.0185 30.3905C10.8601 30.5493 10.7713 30.7643 10.7707 30.9885C10.7707 30.9892 10.7705 30.9898 10.7705 30.9903V41.8776C10.7705 42.3468 11.1508 42.7272 11.6201 42.7272C12.0894 42.7272 12.4697 42.3468 12.4697 41.8776V37.9934C13.1748 37.9895 14.1527 37.9847 14.6516 37.9847C16.8474 37.9847 18.6337 36.2253 18.6337 34.0626C18.6337 31.9 16.8473 30.1406 14.6516 30.1406H11.6202V30.1407ZM16.9346 34.0628C16.9346 35.2676 15.8891 36.2856 14.6518 36.2856C14.1556 36.2856 13.1912 36.2903 12.4862 36.2942C12.4823 35.5702 12.4774 34.569 12.4774 34.0628C12.4774 33.6357 12.4747 32.5929 12.4724 31.84H14.6518C15.8891 31.84 16.9346 32.8578 16.9346 34.0628Z" fill="black"/>
</g>
<defs>
<clipPath id="clip0">
<rect width="58" height="58" fill="white"/>
</clipPath>
</defs>
</svg>
