<?xml version="1.0" encoding="utf-8"?>
<!-- Generator: Adobe Illustrator 23.0.2, SVG Export Plug-In . SVG Version: 6.00 Build 0)  -->
<svg version="1.1" id="Слой_1" xmlns="http://www.w3.org/2000/svg" xmlns:xlink="http://www.w3.org/1999/xlink" x="0px" y="0px"
	 viewBox="0 0 257 110" style="enable-background:new 0 0 257 110;" xml:space="preserve">
<style type="text/css">
	.st0{fill:#00486F;}
	.st1{fill:#FF005C;}
	.st2{fill:url(#SVGID_1_);}
	.st3{fill:url(#SVGID_2_);}
	.st4{fill:none;stroke:#FF005C;}
	.st5{fill:none;stroke:#000000;}
</style>
<g>
	<path class="st0" d="M18.9,48.9h-7v17.7H7V48.9H0v-4.1h18.9V48.9z"/>
	<path class="st0" d="M31.3,49.6c1.6,0,3,0.4,4.2,1.1c1.3,0.7,2.3,1.7,3,3c0.7,1.3,1.1,2.8,1.1,4.5c0,1.7-0.4,3.2-1.1,4.6
		c-0.7,1.3-1.7,2.3-3,3c-1.3,0.7-2.7,1.1-4.2,1.1c-2.1,0-3.8-0.7-5.1-2v7.8h-4.9V49.8H26v1.9C27.2,50.3,29,49.6,31.3,49.6z
		 M30.4,62.8c1.2,0,2.3-0.4,3.1-1.2c0.8-0.9,1.2-2,1.2-3.4c0-1.4-0.4-2.5-1.2-3.4c-0.8-0.9-1.8-1.3-3.1-1.3c-1.2,0-2.3,0.4-3.1,1.3
		c-0.8,0.8-1.2,2-1.2,3.4c0,1.4,0.4,2.5,1.2,3.4C28.1,62.4,29.2,62.8,30.4,62.8z"/>
	<path class="st0" d="M43,49.8h4.8v10l8.2-10h4.5v16.8h-4.8v-10l-8.1,10H43V49.8z"/>
	<path class="st0" d="M65.2,49.8H70v6.6h7.3v-6.6h4.9v16.8h-4.9v-6.3H70v6.3h-4.8V49.8z"/>
	<path class="st0" d="M86.8,49.8h4.8v10l8.2-10h4.5v16.8h-4.8v-10l-8.1,10h-4.5V49.8z"/>
	<path class="st0" d="M123.1,53.8h-5.7v12.8h-4.8V53.8h-5.7v-4h16.2V53.8z"/>
	<path class="st0" d="M125.7,49.8h4.8v10l8.2-10h4.5v16.8h-4.8v-10l-8.1,10h-4.5V49.8z"/>
	<path class="st1" d="M168.1,66.6l0-13.1l-6.4,10.8h-2.2L153,53.8v12.8h-4.7V44.7l12.3,19.5l12.3-19.5l0,21.8H168.1z"/>
	<path class="st1" d="M194.2,58.3c0,0.1,0,0.5-0.1,1.3h-12.7c0.2,1,0.8,1.9,1.6,2.5c0.9,0.6,1.9,0.9,3.2,0.9c0.9,0,1.6-0.1,2.3-0.4
		c0.7-0.3,1.3-0.7,1.9-1.2l2.6,2.8c-1.6,1.8-3.9,2.7-6.9,2.7c-1.9,0-3.6-0.4-5-1.1c-1.5-0.7-2.6-1.8-3.4-3.1
		c-0.8-1.3-1.2-2.8-1.2-4.5c0-1.6,0.4-3.1,1.2-4.4c0.8-1.3,1.9-2.4,3.2-3.1c1.4-0.7,2.9-1.1,4.6-1.1c1.6,0,3.1,0.4,4.5,1.1
		c1.3,0.7,2.4,1.7,3.1,3.1C193.8,55,194.2,56.5,194.2,58.3z M185.5,53.2c-1.1,0-2,0.3-2.8,0.9c-0.7,0.6-1.2,1.5-1.4,2.6h8.3
		c-0.2-1.1-0.6-1.9-1.4-2.5C187.5,53.6,186.6,53.2,185.5,53.2z"/>
	<path class="st1" d="M216.6,62.6v7.6h-4.5v-3.6h-11.8v3.6h-4.5v-7.6h0.7c1,0,1.8-0.6,2.2-1.8c0.4-1.2,0.6-2.9,0.7-5.1l0.2-5.8h14.6
		v12.8H216.6z M203.7,56c-0.1,1.7-0.2,3.1-0.4,4.2c-0.2,1.1-0.6,1.9-1.1,2.5h7.1v-8.8h-5.5L203.7,56z"/>
	<path class="st1" d="M219.7,49.8h4.8v10l8.2-10h4.5v16.8h-4.8v-10l-8.1,10h-4.5V49.8z"/>
	<path class="st1" d="M248.3,49.6c2.6,0,4.6,0.6,6,1.9c1.4,1.2,2.1,3.1,2.1,5.6v9.6h-4.6v-2.1c-0.9,1.6-2.6,2.3-5.1,2.3
		c-1.3,0-2.4-0.2-3.4-0.7c-0.9-0.4-1.7-1-2.2-1.8c-0.5-0.8-0.7-1.6-0.7-2.6c0-1.6,0.6-2.8,1.7-3.7c1.2-0.9,3-1.3,5.5-1.3h3.9
		c0-1.1-0.3-1.9-1-2.4c-0.6-0.6-1.6-0.9-2.9-0.9c-0.9,0-1.8,0.1-2.7,0.4c-0.9,0.3-1.6,0.6-2.2,1.1l-1.7-3.4c0.9-0.6,2-1.1,3.3-1.5
		C245.7,49.7,247,49.6,248.3,49.6z M248,63.6c0.8,0,1.6-0.2,2.2-0.6c0.6-0.4,1.1-1,1.4-1.7v-1.7h-3.3c-2,0-3,0.7-3,2
		c0,0.6,0.2,1.1,0.7,1.5C246.4,63.4,247.1,63.6,248,63.6z"/>
	
		<linearGradient id="SVGID_1_" gradientUnits="userSpaceOnUse" x1="166.382" y1="50.3601" x2="161.382" y2="65.3601" gradientTransform="matrix(1 0 0 -1 0 112)">
		<stop  offset="0" style="stop-color:#FF005C"/>
		<stop  offset="1" style="stop-color:#FF005C;stop-opacity:0"/>
	</linearGradient>
	<path class="st2" d="M160.6,44.1h13l-13,21l-13-21H160.6z"/>
	
		<linearGradient id="SVGID_2_" gradientUnits="userSpaceOnUse" x1="155.2798" y1="41.9961" x2="158.7798" y2="28.9961" gradientTransform="matrix(1 0 0 -1 0 112)">
		<stop  offset="0" style="stop-color:#FF005C"/>
		<stop  offset="1" style="stop-color:#FF005C;stop-opacity:0"/>
	</linearGradient>
	<path class="st3" d="M160.5,89.6h-13l13-21l13,21H160.5z"/>
	<path class="st4" d="M179.9,33.5l-33.2,55.2"/>
	<path class="st4" d="M165.4,73.6l-33.4-55"/>
	<path class="st5" d="M238.5,44.2h-113"/>
</g>
</svg>
