<?xml version="1.0" encoding="utf-8"?><svg xmlns="http://www.w3.org/2000/svg" xmlns:xlink="http://www.w3.org/1999/xlink"><symbol viewBox="0 0 344.96 344.96" id="check" xmlns="http://www.w3.org/2000/svg"><g data-name="Слой 2"><path d="M321.85 86.24l-40-23.11-23.1-40H212.5L172.48 0l-40 23.11H86.24l-23.11 40-40 23.1v46.21L0 172.48l23.11 40v46.21l40 23.11 23.11 40h46.21l40 23.1 40-23.11h46.21l23.11-40 40-23.11V212.5l23.11-40-23.11-40V86.24zM156.91 243.07a16.79 16.79 0 01-23.34 0l-50.45-50.44a16.19 16.19 0 010-22.89l13.35-13.35a16.19 16.19 0 0122.89 0l25.87 25.87 80.34-80.35a16.19 16.19 0 0122.89 0l13.35 13.35a16.19 16.19 0 010 22.89z" data-name="Capa 1"/></g></symbol><symbol viewBox="0 0 26 26" id="clock" xmlns="http://www.w3.org/2000/svg"><path d="M13 2.387a11.9 11.9 0 014.538.898 11.862 11.862 0 013.846 2.56 11.803 11.803 0 012.57 3.83 11.763 11.763 0 01-2.57 12.867 11.864 11.864 0 01-3.846 2.56 11.902 11.902 0 01-12.922-2.56 11.781 11.781 0 01-3.473-8.349c0-3.131 1.25-6.134 3.473-8.348A11.883 11.883 0 0113 2.387zm0 1.574c-2.725 0-5.34 1.078-7.266 2.997a10.21 10.21 0 00-3.01 7.235 10.21 10.21 0 003.01 7.236A10.298 10.298 0 0013 24.426c2.725 0 5.34-1.078 7.266-2.997a10.21 10.21 0 003.01-7.236 10.21 10.21 0 00-3.01-7.235A10.298 10.298 0 0013 3.96zm-.79 3.148h1.58v6.869l4.82 2.237-.67 1.426-5.73-2.66V7.108zm6.718-5.903L19.945 0 26 5.06l-1.017 1.205-6.055-5.06zm-11.856 0l-6.055 5.06L0 5.06 6.055 0l1.017 1.206z"/></symbol><symbol viewBox="0 0 26 21" id="mail" xmlns="http://www.w3.org/2000/svg"><path d="M4.667.667H22a4 4 0 014 4v12a4 4 0 01-4 4H4.667a4 4 0 01-4-4v-12a4 4 0 014-4zm0 1.333c-.65 0-1.248.233-1.71.621L13.333 9.36 23.71 2.621A2.656 2.656 0 0022.001 2H4.666zm8.667 8.95L2.179 3.706a2.66 2.66 0 00-.179.96v12a2.667 2.667 0 002.667 2.666H22a2.666 2.666 0 002.667-2.666v-12c0-.339-.063-.663-.179-.96l-11.154 7.241v.001z"/></symbol><symbol viewBox="0 0 19 28" id="mark" xmlns="http://www.w3.org/2000/svg"><path d="M9.499 5.889a3.64 3.64 0 012.583 1.078 3.697 3.697 0 011.07 2.604c0 .977-.385 1.913-1.07 2.604A3.64 3.64 0 019.5 13.253a3.64 3.64 0 01-2.584-1.078 3.697 3.697 0 01-1.07-2.604 3.7 3.7 0 011.07-2.604A3.64 3.64 0 019.499 5.89zm0 1.473c-.582 0-1.14.233-1.55.647a2.218 2.218 0 000 3.124 2.184 2.184 0 003.1 0 2.218 2.218 0 000-3.124 2.184 2.184 0 00-1.55-.647zm-6.87 6.417L9.5 25.165l6.869-11.386a8.148 8.148 0 00.137-8.178 8.072 8.072 0 00-2.948-3.022 7.991 7.991 0 00-8.117 0 8.071 8.071 0 00-2.948 3.022 8.15 8.15 0 00.137 8.178zm14.987.766L9.499 28 1.38 14.545a9.629 9.629 0 01-.16-9.665 9.54 9.54 0 013.483-3.57 9.444 9.444 0 019.592 0 9.54 9.54 0 013.484 3.57 9.633 9.633 0 01-.161 9.665h-.003z"/></symbol><symbol viewBox="0 0 26 26" id="tel" xmlns="http://www.w3.org/2000/svg"><path d="M24 25.333c1.103 0 2-.897 2-2v-4.666c0-1.103-.897-2-2-2-1.56 0-3.093-.246-4.56-.73a2.031 2.031 0 00-2.03.484l-1.92 1.92a19.54 19.54 0 01-7.847-7.844l1.904-1.916c.55-.509.747-1.284.512-2.029A14.496 14.496 0 019.334 2c0-1.103-.898-2-2-2H2.667c-1.103 0-2 .897-2 2C.667 14.867 11.134 25.333 24 25.333zm-21.333-24h4.667A.667.667 0 018 2c0 1.703.267 3.375.791 4.96a.63.63 0 01-.17.663l-2.607 2.621c2.182 4.304 5.406 7.528 9.73 9.73l2.599-2.6a.688.688 0 01.688-.169 15.78 15.78 0 004.97.795c.366 0 .666.3.666.667v4.666c0 .367-.3.667-.667.667C11.87 24 2 14.13 2 2a.667.667 0 01.667-.667z"/></symbol></svg>