<svg width="26" height="26" viewBox="0 0 26 26" fill="none" xmlns="http://www.w3.org/2000/svg">
<path d="M13 2.38653C14.5571 2.38653 16.0989 2.69192 17.5375 3.28527C18.976 3.87861 20.2831 4.74829 21.3842 5.84465C22.4852 6.941 23.3586 8.24257 23.9544 9.67503C24.5503 11.1075 24.857 12.6428 24.857 14.1933C24.857 15.7437 24.5503 17.279 23.9544 18.7115C23.3586 20.144 22.4852 21.4455 21.3842 22.5419C20.2831 23.6382 18.976 24.5079 17.5375 25.1013C16.0989 25.6946 14.5571 26 13 26C9.85533 26 6.83946 24.7561 4.61584 22.5419C2.39223 20.3277 1.14301 17.3246 1.14301 14.1933C1.14301 11.0619 2.39223 8.05884 4.61584 5.84465C6.83946 3.63045 9.85533 2.38653 13 2.38653ZM13 3.96077C10.2746 3.96077 7.66087 5.03883 5.73373 6.9578C3.8066 8.87676 2.72395 11.4794 2.72395 14.1933C2.72395 16.9071 3.8066 19.5098 5.73373 21.4287C7.66087 23.3477 10.2746 24.4258 13 24.4258C15.7254 24.4258 18.3391 23.3477 20.2663 21.4287C22.1934 19.5098 23.2761 16.9071 23.2761 14.1933C23.2761 11.4794 22.1934 8.87676 20.2663 6.9578C18.3391 5.03883 15.7254 3.96077 13 3.96077ZM12.2095 7.10923L13.7905 7.10923L13.7905 13.9776L18.6091 16.2146L17.9404 17.6408L12.2095 14.9804L12.2095 7.10923ZM18.9285 1.20586L19.945 2.41528e-07L26 5.05958L24.9835 6.26544L18.9285 1.20586ZM7.07151 1.20586L1.01654 6.26544L-6.12698e-08 5.05958L6.05497 7.33237e-08L7.07151 1.20586Z" fill="#004D74"/>
</svg>
