<svg width="26" height="21" viewBox="0 0 26 21" fill="none" xmlns="http://www.w3.org/2000/svg">
<path d="M4.66699 0.666656H22.0003C23.0612 0.666656 24.0786 1.08808 24.8288 1.83823C25.5789 2.58838 26.0003 3.60579 26.0003 4.66666V16.6667C26.0003 17.7275 25.5789 18.7449 24.8288 19.4951C24.0786 20.2452 23.0612 20.6667 22.0003 20.6667H4.66699C3.60613 20.6667 2.58871 20.2452 1.83857 19.4951C1.08842 18.7449 0.666992 17.7275 0.666992 16.6667V4.66666C0.666992 3.60579 1.08842 2.58838 1.83857 1.83823C2.58871 1.08808 3.60613 0.666656 4.66699 0.666656ZM4.66699 1.99999C4.01633 1.99999 3.41899 2.23332 2.95633 2.62132L13.3337 9.35999L23.711 2.62132C23.2317 2.21921 22.6259 1.99917 22.0003 1.99999H4.66699ZM13.3337 10.9493L2.17899 3.70666C2.06071 4.01289 2.00013 4.33837 2.00033 4.66666V16.6667C2.00033 17.3739 2.28128 18.0522 2.78137 18.5523C3.28147 19.0524 3.95975 19.3333 4.66699 19.3333H22.0003C22.7076 19.3333 23.3858 19.0524 23.8859 18.5523C24.386 18.0522 24.667 17.3739 24.667 16.6667V4.66666C24.667 4.32799 24.6043 4.00399 24.4883 3.70666L13.3337 10.948V10.9493Z" fill="#00486F"/>
</svg>
