<svg width="19" height="28" viewBox="0 0 19 28" fill="none" xmlns="http://www.w3.org/2000/svg">
<path d="M9.49854 5.88892C10.4676 5.88892 11.397 6.27687 12.0822 6.96742C12.7674 7.65798 13.1524 8.59457 13.1524 9.57116C13.1524 10.5477 12.7674 11.4843 12.0822 12.1749C11.397 12.8654 10.4676 13.2534 9.49854 13.2534C8.52948 13.2534 7.60011 12.8654 6.91488 12.1749C6.22965 11.4843 5.84469 10.5477 5.84469 9.57116C5.84469 8.59457 6.22965 7.65798 6.91488 6.96742C7.60011 6.27687 8.52948 5.88892 9.49854 5.88892ZM9.49854 7.36182C8.9171 7.36182 8.35948 7.59459 7.94834 8.00892C7.5372 8.42325 7.30623 8.9852 7.30623 9.57116C7.30623 10.1571 7.5372 10.7191 7.94834 11.1334C8.35948 11.5477 8.9171 11.7805 9.49854 11.7805C10.08 11.7805 10.6376 11.5477 11.0487 11.1334C11.4599 10.7191 11.6908 10.1571 11.6908 9.57116C11.6908 8.9852 11.4599 8.42325 11.0487 8.00892C10.6376 7.59459 10.08 7.36182 9.49854 7.36182ZM2.62931 13.7792L9.49854 25.1647L16.3678 13.7792C17.1086 12.5508 17.5118 11.1459 17.5359 9.70862C17.5599 8.27135 17.2041 6.8535 16.5049 5.60059C15.8056 4.34768 14.7882 3.30485 13.5569 2.57911C12.3256 1.85337 10.9249 1.47087 9.49854 1.47087C8.07214 1.47087 6.67143 1.85337 5.44017 2.57911C4.20891 3.30485 3.19145 4.34768 2.49221 5.60059C1.79296 6.8535 1.43713 8.27135 1.46122 9.70862C1.48532 11.1459 1.88847 12.5508 2.62931 13.7792ZM17.6159 14.5451L9.49854 28L1.38115 14.5451C0.50587 13.0934 0.0296414 11.433 0.00133949 9.73455C-0.0269625 8.03607 0.393681 6.36057 1.2201 4.88001C2.04653 3.39946 3.24897 2.16715 4.70403 1.30957C6.15909 0.451984 7.81437 0 9.5 0C11.1856 0 12.8409 0.451984 14.296 1.30957C15.751 2.16715 16.9535 3.39946 17.7799 4.88001C18.6063 6.36057 19.027 8.03607 18.9987 9.73455C18.9704 11.433 18.4941 13.0934 17.6188 14.5451H17.6159Z" fill="#00486F"/>
</svg>
