<svg width="26" height="26" viewBox="0 0 26 26" fill="none" xmlns="http://www.w3.org/2000/svg">
<path d="M24.0003 25.3333C25.103 25.3333 26.0003 24.436 26.0003 23.3333V18.6667C26.0003 17.564 25.103 16.6667 24.0003 16.6667C22.4403 16.6667 20.907 16.4213 19.4403 15.9373C19.0897 15.8266 18.7157 15.8132 18.358 15.8984C18.0004 15.9837 17.6726 16.1644 17.4097 16.4213L15.4897 18.3413C12.1711 16.5398 9.4457 13.8152 7.64299 10.4973L9.54699 8.58133C10.0963 8.072 10.2937 7.29733 10.059 6.552C9.57598 5.08307 9.33111 3.54631 9.33366 2C9.33366 0.897333 8.43633 0 7.33366 0H2.66699C1.56433 0 0.666992 0.897333 0.666992 2C0.666992 14.8667 11.1337 25.3333 24.0003 25.3333ZM2.66699 1.33333H7.33366C7.51047 1.33333 7.68004 1.40357 7.80506 1.5286C7.93009 1.65362 8.00033 1.82319 8.00033 2C8.00033 3.70267 8.26699 5.37467 8.79099 6.96C8.82949 7.07504 8.83399 7.19875 8.80396 7.31628C8.77392 7.43382 8.71063 7.5402 8.62166 7.62267L6.01366 10.244C8.19633 14.548 11.4203 17.772 15.7443 19.9733L18.343 17.3733C18.4317 17.2856 18.5425 17.2236 18.6637 17.194C18.7849 17.1644 18.9119 17.1683 19.031 17.2053C20.6257 17.7333 22.2977 18 24.0003 18C24.367 18 24.667 18.3 24.667 18.6667V23.3333C24.667 23.7 24.367 24 24.0003 24C11.8697 24 2.00033 14.1307 2.00033 2C2.00033 1.82319 2.07056 1.65362 2.19559 1.5286C2.32061 1.40357 2.49018 1.33333 2.66699 1.33333Z" fill="#00486F"/>
</svg>
